<svg width="220" height="52" viewBox="0 0 220 52" fill="none" xmlns="http://www.w3.org/2000/svg">
<rect x="0.5" y="0.5" width="219" height="51" rx="3.5" fill="url(#paint0_linear_12_552)" fill-opacity="0.1" stroke="url(#paint1_linear_12_552)"/>
<path d="M191.984 19.25C188.331 19.25 184.583 21.3645 181.633 25.5936C181.548 25.7156 181.502 25.8599 181.5 26.0082C181.498 26.1564 181.54 26.302 181.62 26.4266C183.887 29.975 187.584 32.75 191.984 32.75C196.336 32.75 200.109 29.9666 202.381 26.4102C202.459 26.2881 202.501 26.1459 202.501 26.0007C202.501 25.8555 202.459 25.7134 202.381 25.5912C200.104 22.0756 196.303 19.25 191.984 19.25Z" stroke="white" stroke-linecap="round" stroke-linejoin="round"/>
<path d="M192 29.75C194.071 29.75 195.75 28.0711 195.75 26C195.75 23.9289 194.071 22.25 192 22.25C189.929 22.25 188.25 23.9289 188.25 26C188.25 28.0711 189.929 29.75 192 29.75Z" stroke="white" stroke-miterlimit="10"/>
<path d="M25.6257 33V18.4545H28.2606V30.7912H34.6669V33H25.6257ZM39.3794 33.2202C38.6881 33.2202 38.0654 33.0971 37.5115 32.8509C36.9622 32.5999 36.5266 32.2306 36.2047 31.7429C35.8874 31.2552 35.7288 30.6539 35.7288 29.9389C35.7288 29.3234 35.8424 28.8144 36.0697 28.4119C36.297 28.0095 36.6071 27.6875 37.0001 27.446C37.3931 27.2045 37.8358 27.0223 38.3282 26.8991C38.8254 26.7713 39.3391 26.679 39.8694 26.6222C40.5086 26.5559 41.0271 26.4967 41.4248 26.4446C41.8226 26.3878 42.1114 26.3026 42.2913 26.1889C42.476 26.0705 42.5683 25.8883 42.5683 25.642V25.5994C42.5683 25.0644 42.4097 24.6501 42.0924 24.3565C41.7752 24.063 41.3183 23.9162 40.7217 23.9162C40.092 23.9162 39.5924 24.0535 39.2231 24.3281C38.8585 24.6027 38.6123 24.9271 38.4845 25.3011L36.0839 24.9602C36.2733 24.2973 36.5858 23.7434 37.0214 23.2983C37.457 22.8485 37.9897 22.5123 38.6194 22.2898C39.2492 22.0625 39.9452 21.9489 40.7075 21.9489C41.2331 21.9489 41.7563 22.0104 42.2771 22.1335C42.7979 22.2566 43.2738 22.4602 43.7047 22.7443C44.1355 23.0237 44.4812 23.4048 44.7416 23.8878C45.0067 24.3707 45.1393 24.9744 45.1393 25.6989V33H42.6677V31.5014H42.5825C42.4262 31.8045 42.2061 32.0885 41.922 32.3537C41.6426 32.6141 41.2899 32.8248 40.8637 32.9858C40.4423 33.142 39.9476 33.2202 39.3794 33.2202ZM40.047 31.331C40.5631 31.331 41.0105 31.2292 41.3893 31.0256C41.7681 30.8172 42.0593 30.5426 42.2629 30.2017C42.4712 29.8608 42.5754 29.4891 42.5754 29.0866V27.8011C42.4949 27.8674 42.3576 27.929 42.1635 27.9858C41.9741 28.0426 41.761 28.0923 41.5243 28.1349C41.2875 28.1776 41.0531 28.2154 40.8211 28.2486C40.5891 28.2817 40.3879 28.3101 40.2174 28.3338C39.8339 28.3859 39.4906 28.4711 39.1876 28.5895C38.8846 28.7079 38.6455 28.8736 38.4703 29.0866C38.2951 29.295 38.2075 29.5649 38.2075 29.8963C38.2075 30.3698 38.3803 30.7273 38.726 30.9688C39.0716 31.2102 39.5119 31.331 40.047 31.331ZM48.3319 37.0909C47.9815 37.0909 47.6572 37.0625 47.3589 37.0057C47.0654 36.9536 46.831 36.892 46.6558 36.821L47.2524 34.8182C47.6264 34.9271 47.9602 34.9792 48.2538 34.9744C48.5474 34.9697 48.8054 34.8774 49.0279 34.6974C49.2552 34.5223 49.447 34.2287 49.6032 33.8168L49.8234 33.2273L45.8674 22.0909H48.5947L51.1089 30.3295H51.2226L53.7439 22.0909H56.4782L52.1103 34.321C51.9067 34.8987 51.6368 35.3935 51.3007 35.8054C50.9645 36.2221 50.5526 36.5393 50.0649 36.7571C49.5819 36.9796 49.0043 37.0909 48.3319 37.0909ZM62.0448 33.2131C60.9794 33.2131 60.0561 32.9787 59.2749 32.5099C58.4936 32.0412 57.8876 31.3854 57.4567 30.5426C57.0306 29.6998 56.8175 28.715 56.8175 27.5881C56.8175 26.4612 57.0306 25.474 57.4567 24.6264C57.8876 23.7789 58.4936 23.1207 59.2749 22.652C60.0561 22.1832 60.9794 21.9489 62.0448 21.9489C63.1101 21.9489 64.0334 22.1832 64.8147 22.652C65.5959 23.1207 66.1996 23.7789 66.6257 24.6264C67.0566 25.474 67.2721 26.4612 67.2721 27.5881C67.2721 28.715 67.0566 29.6998 66.6257 30.5426C66.1996 31.3854 65.5959 32.0412 64.8147 32.5099C64.0334 32.9787 63.1101 33.2131 62.0448 33.2131ZM62.059 31.1534C62.6366 31.1534 63.1196 30.9948 63.5079 30.6776C63.8961 30.3556 64.1849 29.9247 64.3743 29.3849C64.5685 28.8452 64.6655 28.2438 64.6655 27.581C64.6655 26.9134 64.5685 26.3097 64.3743 25.7699C64.1849 25.2254 63.8961 24.7921 63.5079 24.4702C63.1196 24.1482 62.6366 23.9872 62.059 23.9872C61.4671 23.9872 60.9747 24.1482 60.5817 24.4702C60.1935 24.7921 59.9023 25.2254 59.7081 25.7699C59.5187 26.3097 59.424 26.9134 59.424 27.581C59.424 28.2438 59.5187 28.8452 59.7081 29.3849C59.9023 29.9247 60.1935 30.3556 60.5817 30.6776C60.9747 30.9948 61.4671 31.1534 62.059 31.1534ZM75.8074 28.4119V22.0909H78.3784V33H75.8855V31.0611H75.7718C75.5256 31.6719 75.1208 32.1714 74.5574 32.5597C73.9986 32.9479 73.3097 33.142 72.4906 33.142C71.7756 33.142 71.1435 32.9834 70.5943 32.6662C70.0498 32.3442 69.6236 31.8778 69.3159 31.267C69.0081 30.6515 68.8542 29.9081 68.8542 29.0369V22.0909H71.4252V28.6392C71.4252 29.3305 71.6146 29.8797 71.9934 30.2869C72.3722 30.6941 72.8694 30.8977 73.4849 30.8977C73.8637 30.8977 74.2306 30.8054 74.5858 30.6207C74.9409 30.4361 75.2321 30.1615 75.4593 29.7969C75.6913 29.4276 75.8074 28.9659 75.8074 28.4119ZM85.8696 22.0909V24.0795H79.5983V22.0909H85.8696ZM81.1466 19.4773H83.7177V29.7188C83.7177 30.0644 83.7697 30.3295 83.8739 30.5142C83.9828 30.6941 84.1248 30.8172 84.3 30.8835C84.4752 30.9498 84.6694 30.983 84.8824 30.983C85.0434 30.983 85.1902 30.9711 85.3228 30.9474C85.4601 30.9238 85.5642 30.9025 85.6353 30.8835L86.0685 32.8935C85.9312 32.9408 85.7347 32.9929 85.479 33.0497C85.2281 33.1065 84.9203 33.1397 84.5557 33.1491C83.9118 33.1681 83.3318 33.071 82.8157 32.858C82.2996 32.6402 81.89 32.304 81.587 31.8494C81.2887 31.3949 81.1419 30.8267 81.1466 30.1449V19.4773ZM97.1288 33.277C95.9593 33.277 94.9555 32.9811 94.1174 32.3892C93.2841 31.7926 92.6425 30.9332 92.1927 29.8111C91.7476 28.6842 91.5251 27.3277 91.5251 25.7415C91.5298 24.1553 91.7548 22.8059 92.1998 21.6932C92.6496 20.5758 93.2912 19.7235 94.1245 19.1364C94.9626 18.5492 95.964 18.2557 97.1288 18.2557C98.2936 18.2557 99.295 18.5492 100.133 19.1364C100.971 19.7235 101.613 20.5758 102.058 21.6932C102.508 22.8106 102.732 24.16 102.732 25.7415C102.732 27.3324 102.508 28.6913 102.058 29.8182C101.613 30.9403 100.971 31.7973 100.133 32.3892C99.2997 32.9811 98.2983 33.277 97.1288 33.277ZM97.1288 31.054C98.0379 31.054 98.7552 30.6065 99.2808 29.7116C99.8111 28.812 100.076 27.4886 100.076 25.7415C100.076 24.5862 99.9555 23.6155 99.714 22.8295C99.4726 22.0436 99.1316 21.4517 98.6913 21.054C98.251 20.6515 97.7301 20.4503 97.1288 20.4503C96.2244 20.4503 95.5095 20.9001 94.9839 21.7997C94.4583 22.6946 94.1932 24.0085 94.1885 25.7415C94.1837 26.9015 94.2997 27.8769 94.5365 28.6676C94.778 29.4583 95.1189 30.0549 95.5592 30.4574C95.9995 30.8551 96.5227 31.054 97.1288 31.054ZM110.408 18.4545V33H107.773V21.0185H107.688L104.286 23.1918V20.777L107.901 18.4545H110.408Z" fill="white"/>
<line x1="164.5" y1="1" x2="164.5" y2="51" stroke="black"/>
<line x1="164.5" y1="1" x2="164.5" y2="51" stroke="url(#paint2_linear_12_552)"/>
<defs>
<linearGradient id="paint0_linear_12_552" x1="-69.9092" y1="-23.2914" x2="261.057" y2="-18.0503" gradientUnits="userSpaceOnUse">
<stop stop-color="#06B6D4"/>
<stop offset="1" stop-color="#2DD4BF"/>
</linearGradient>
<linearGradient id="paint1_linear_12_552" x1="-69.9092" y1="-23.2914" x2="261.057" y2="-18.0503" gradientUnits="userSpaceOnUse">
<stop stop-color="#06B6D4"/>
<stop offset="1" stop-color="#2DD4BF"/>
</linearGradient>
<linearGradient id="paint2_linear_12_552" x1="164.448" y1="-14.8885" x2="150.844" y2="57.8041" gradientUnits="userSpaceOnUse">
<stop stop-color="#06B6D4"/>
<stop offset="1" stop-color="#2DD4BF"/>
</linearGradient>
</defs>
</svg>
