<svg width="28" height="26" viewBox="0 0 28 26" fill="none" xmlns="http://www.w3.org/2000/svg">
<path d="M17.1825 18.6532C16.4864 19.6685 15.7279 20.6371 14.9114 21.5532C17.085 23.7172 19.1078 24.7306 20.2284 24.0652C21.3516 23.4012 21.5063 21.0986 20.7666 18.0866C19.6577 18.3399 18.4526 18.5319 17.1825 18.6532ZM15.4795 18.7692C14.4937 18.8111 13.5066 18.8111 12.5207 18.7692C13.0108 19.4252 13.5061 20.0332 14.0001 20.5879C14.4941 20.0332 14.9881 19.4252 15.4795 18.7692ZM22.0315 8.24391C25.496 9.26257 27.758 10.9559 27.758 12.9999C27.758 15.0439 25.496 16.7372 22.0315 17.7559C22.9025 21.3426 22.6048 24.1986 20.8797 25.2199C19.1533 26.2426 16.5923 25.0799 14.0001 22.5132C11.4079 25.0799 8.84695 26.2426 7.12055 25.2199C5.39545 24.1986 5.09645 21.3426 5.96875 17.7559C2.50425 16.7372 0.242249 15.0439 0.242249 12.9999C0.242249 10.9559 2.50425 9.26257 5.96875 8.24391C5.09775 4.65724 5.39545 1.80124 7.12055 0.779905C8.84695 -0.242761 11.4079 0.919905 14.0001 3.48657C16.5923 0.919905 19.1533 -0.242761 20.8797 0.779905C22.6048 1.80124 22.9038 4.65724 22.0315 8.24391ZM20.7666 7.91324C21.5076 4.89991 21.3516 2.59857 20.2297 1.93457C19.1078 1.26924 17.085 2.28257 14.9127 4.44657C15.681 5.30391 16.4454 6.27857 17.1825 7.34657C18.4539 7.46657 19.6577 7.65857 20.7666 7.91324ZM7.23365 18.0866C6.49265 21.0999 6.64865 23.4012 7.77055 24.0652C8.89245 24.7306 10.9152 23.7172 13.0875 21.5532C12.2716 20.6371 11.5134 19.6684 10.8177 18.6532C9.61251 18.5427 8.41538 18.3535 7.23365 18.0866ZM12.5207 7.23057C13.5066 7.18871 14.4937 7.18871 15.4795 7.23057C15.0122 6.60319 14.5186 5.99684 14.0001 5.41324C13.5061 5.96791 13.0121 6.57591 12.5207 7.2319V7.23057ZM10.8177 7.34657C11.5143 6.3313 12.2733 5.36266 13.0901 4.44657C10.9152 2.28257 8.89115 1.26924 7.77185 1.93457C6.64865 2.59857 6.49395 4.90124 7.23365 7.91324C8.34255 7.65991 9.54765 7.46791 10.8177 7.34657ZM16.4623 17.3732C17.3877 15.9804 18.2103 14.5185 18.9232 12.9999C18.2103 11.4813 17.3877 10.0194 16.4623 8.62657C14.8232 8.5007 13.1771 8.5007 11.5379 8.62657C10.6126 10.0194 9.78996 11.4813 9.07705 12.9999C9.78996 14.5185 10.6126 15.9804 11.5379 17.3732C13.1771 17.4991 14.8232 17.4991 16.4623 17.3732ZM18.1315 17.1986C18.931 17.0919 19.6915 16.9546 20.4065 16.7932C20.1727 16.0409 19.9073 15.2993 19.6109 14.5706C19.1533 15.4667 18.6598 16.343 18.1315 17.1972V17.1986ZM9.86875 8.79991C9.06925 8.90657 8.30875 9.04391 7.59375 9.20524C7.81475 9.91991 8.07995 10.6639 8.38935 11.4279C8.84696 10.5318 9.34051 9.6555 9.86875 8.80124V8.79991ZM7.59375 16.7919C8.30875 16.9532 9.06925 17.0892 9.86875 17.1972C9.34051 16.343 8.84696 15.4667 8.38935 14.5706C8.07995 15.3332 7.81475 16.0772 7.59375 16.7919ZM6.32235 16.4652C6.66165 15.3532 7.10235 14.1879 7.63535 12.9986C7.10235 11.8092 6.66165 10.6439 6.32235 9.53191C3.40775 10.3812 1.54225 11.6706 1.54225 12.9986C1.54225 14.3266 3.40775 15.6159 6.32235 16.4652ZM20.4065 9.20524C19.6915 9.04391 18.931 8.90791 18.1315 8.79991C18.6598 9.65417 19.1533 10.5305 19.6109 11.4266C19.9203 10.6639 20.1855 9.91991 20.4065 9.20524ZM21.6779 9.53191C21.3386 10.6439 20.8979 11.8092 20.3649 12.9986C20.8979 14.1879 21.3386 15.3532 21.6779 16.4652C24.5925 15.6159 26.458 14.3266 26.458 12.9986C26.458 11.6706 24.5925 10.3812 21.6779 9.53191ZM14.0001 15.5066C13.6792 15.5066 13.3614 15.4417 13.0649 15.3158C12.7683 15.1898 12.4989 15.0052 12.272 14.7724C12.045 14.5396 11.865 14.2633 11.7422 13.9592C11.6194 13.655 11.5561 13.3291 11.5561 12.9999C11.5561 12.6707 11.6194 12.3448 11.7422 12.0406C11.865 11.7365 12.045 11.4602 12.272 11.2274C12.4989 10.9947 12.7683 10.81 13.0649 10.684C13.3614 10.5581 13.6792 10.4932 14.0001 10.4932C14.6483 10.4932 15.27 10.7573 15.7283 11.2274C16.1867 11.6975 16.4441 12.3351 16.4441 12.9999C16.4441 13.6647 16.1867 14.3023 15.7283 14.7724C15.27 15.2425 14.6483 15.5066 14.0001 15.5066Z" fill="#4B5563"/>
</svg>
