<svg width="38" height="23" viewBox="0 0 38 23" fill="none" xmlns="http://www.w3.org/2000/svg">
<path fill-rule="evenodd" clip-rule="evenodd" d="M18.7234 0.00012207C13.7305 0.00012207 10.6099 2.53103 9.3617 7.59285C11.234 5.06194 13.4184 4.11285 15.9149 4.74558C17.3393 5.10623 18.3573 6.15445 19.4841 7.31375C21.3197 9.20279 23.4445 11.3892 28.0851 11.3892C33.078 11.3892 36.1986 8.8583 37.4468 3.79649C35.5745 6.3274 33.3901 7.27649 30.8936 6.64376C29.4692 6.2831 28.4513 5.23489 27.3244 4.07559C25.4888 2.18655 23.364 0.00012207 18.7234 0.00012207ZM9.3617 11.3892C4.36879 11.3892 1.24823 13.9201 0 18.9819C1.87234 16.451 4.05674 15.5019 6.55319 16.1347C7.97756 16.496 8.99556 17.5435 10.1224 18.7028C11.958 20.5919 14.0828 22.7783 18.7234 22.7783C23.7163 22.7783 26.8369 20.2474 28.0851 15.1856C26.2128 17.7165 24.0284 18.6656 21.5319 18.0329C20.1075 17.6722 19.0896 16.624 17.9627 15.4647C16.1271 13.5756 14.0023 11.3892 9.3617 11.3892Z" fill="#9CA3AF"/>
</svg>
