<svg width="34" height="34" viewBox="0 0 34 34" fill="none" xmlns="http://www.w3.org/2000/svg">
<path d="M21.1663 0.33334C22.1508 0.333003 23.1192 0.581799 23.9816 1.05656C24.844 1.53131 25.5722 2.21659 26.0984 3.04856C26.6246 3.88053 26.9317 4.83214 26.991 5.81476C27.0504 6.79738 26.8602 7.77905 26.438 8.66834L31.9997 8.66667C32.4417 8.66667 32.8656 8.84227 33.1782 9.15483C33.4907 9.46739 33.6663 9.89131 33.6663 10.3333V17C33.6663 17.442 33.4907 17.866 33.1782 18.1785C32.8656 18.4911 32.4417 18.6667 31.9997 18.6667H30.333V32C30.333 32.442 30.1574 32.866 29.8449 33.1785C29.5323 33.4911 29.1084 33.6667 28.6663 33.6667H5.33301C4.89098 33.6667 4.46706 33.4911 4.1545 33.1785C3.84194 32.866 3.66634 32.442 3.66634 32V18.6667H1.99967C1.55765 18.6667 1.13372 18.4911 0.821163 18.1785C0.508602 17.866 0.333008 17.442 0.333008 17V10.3333C0.333008 9.89131 0.508602 9.46739 0.821163 9.15483C1.13372 8.84227 1.55765 8.66667 1.99967 8.66667L7.56134 8.66834C6.9676 7.42113 6.83572 6.00368 7.18918 4.66834C7.54263 3.333 8.35849 2.16641 9.49151 1.37626C10.6245 0.586109 12.0012 0.223665 13.3764 0.353452C14.7516 0.483239 16.0362 1.09683 17.0013 2.08501C17.5431 1.52922 18.1908 1.0878 18.9063 0.786917C19.6217 0.486031 20.3902 0.331793 21.1663 0.33334V0.33334ZM26.9997 18.6667H6.99967V30.3333H26.9997V18.6667ZM30.333 12H3.66634V15.3333H30.333V12ZM12.833 3.66667C12.191 3.66699 11.5737 3.9143 11.109 4.35735C10.6444 4.80041 10.368 5.40524 10.3371 6.04653C10.3063 6.68782 10.5233 7.31639 10.9433 7.80201C11.3633 8.28762 11.954 8.59305 12.593 8.65501L12.833 8.66667H15.333V6.16667C15.333 5.5452 15.1015 4.94602 14.6836 4.48597C14.2658 4.02593 13.6916 3.738 13.073 3.67834L12.833 3.66667ZM21.1663 3.66667L20.9263 3.67834C20.3486 3.73369 19.8082 3.9883 19.3977 4.39852C18.9871 4.80874 18.7321 5.34901 18.6763 5.92667L18.6663 6.16667V8.66667H21.1663L21.4063 8.65501C22.0247 8.59506 22.5986 8.307 23.0162 7.84699C23.4338 7.38697 23.6651 6.78795 23.6651 6.16667C23.6651 5.5454 23.4338 4.94638 23.0162 4.48636C22.5986 4.02634 22.0247 3.73829 21.4063 3.67834L21.1663 3.66667Z" fill="#F9FAFB"/>
</svg>
