<svg width="34" height="30" viewBox="0 0 34 30" fill="none" xmlns="http://www.w3.org/2000/svg">
<path d="M1.99967 0H31.9997C32.4417 0 32.8656 0.175595 33.1782 0.488155C33.4907 0.800716 33.6663 1.22464 33.6663 1.66667V28.3333C33.6663 28.7754 33.4907 29.1993 33.1782 29.5118C32.8656 29.8244 32.4417 30 31.9997 30H1.99967C1.55765 30 1.13372 29.8244 0.821163 29.5118C0.508602 29.1993 0.333008 28.7754 0.333008 28.3333V1.66667C0.333008 1.22464 0.508602 0.800716 0.821163 0.488155C1.13372 0.175595 1.55765 0 1.99967 0V0ZM30.333 13.3333H3.66634V26.6667H30.333V13.3333ZM30.333 10V3.33333H3.66634V10H30.333ZM11.9997 5H15.333V8.33333H11.9997V5ZM5.33301 5H8.66634V8.33333H5.33301V5Z" fill="#F9FAFB"/>
</svg>
