<svg width="38" height="30" viewBox="0 0 38 30" fill="none" xmlns="http://www.w3.org/2000/svg">
<path d="M18.9994 0C27.9861 0 35.4628 6.46667 37.0311 15C35.4644 23.5333 27.9861 30 18.9994 30C10.0128 30 2.53611 23.5333 0.967773 15C2.53444 6.46667 10.0128 0 18.9994 0ZM18.9994 26.6667C22.3986 26.6659 25.6968 25.5114 28.3542 23.3919C31.0117 21.2725 32.8709 18.3138 33.6278 15C32.8682 11.6888 31.0077 8.73334 28.3505 6.61671C25.6933 4.50008 22.3966 3.34755 18.9994 3.34755C15.6023 3.34755 12.3056 4.50008 9.6484 6.61671C6.99121 8.73334 5.13072 11.6888 4.37111 15C5.12793 18.3138 6.98723 21.2725 9.64468 23.3919C12.3021 25.5114 15.6003 26.6659 18.9994 26.6667V26.6667ZM18.9994 22.5C17.0103 22.5 15.1027 21.7098 13.6961 20.3033C12.2896 18.8968 11.4994 16.9891 11.4994 15C11.4994 13.0109 12.2896 11.1032 13.6961 9.6967C15.1027 8.29018 17.0103 7.5 18.9994 7.5C20.9886 7.5 22.8962 8.29018 24.3027 9.6967C25.7093 11.1032 26.4994 13.0109 26.4994 15C26.4994 16.9891 25.7093 18.8968 24.3027 20.3033C22.8962 21.7098 20.9886 22.5 18.9994 22.5ZM18.9994 19.1667C20.1045 19.1667 21.1643 18.7277 21.9457 17.9463C22.7271 17.1649 23.1661 16.1051 23.1661 15C23.1661 13.8949 22.7271 12.8351 21.9457 12.0537C21.1643 11.2723 20.1045 10.8333 18.9994 10.8333C17.8944 10.8333 16.8346 11.2723 16.0532 12.0537C15.2718 12.8351 14.8328 13.8949 14.8328 15C14.8328 16.1051 15.2718 17.1649 16.0532 17.9463C16.8346 18.7277 17.8944 19.1667 18.9994 19.1667Z" fill="#F9FAFB"/>
</svg>
