<svg width="34" height="34" viewBox="0 0 34 34" fill="none" xmlns="http://www.w3.org/2000/svg">
<path d="M8.66634 8.66659V1.99992C8.66634 1.55789 8.84194 1.13397 9.1545 0.821407C9.46706 0.508847 9.89098 0.333252 10.333 0.333252H31.9997C32.4417 0.333252 32.8656 0.508847 33.1782 0.821407C33.4907 1.13397 33.6663 1.55789 33.6663 1.99992V23.6666C33.6663 24.1086 33.4907 24.5325 33.1782 24.8451C32.8656 25.1577 32.4417 25.3333 31.9997 25.3333H25.333V31.9883C25.333 32.9149 24.5847 33.6666 23.6547 33.6666H2.01134C1.79088 33.6668 1.57254 33.6235 1.36881 33.5393C1.16509 33.455 0.979983 33.3314 0.824092 33.1755C0.668201 33.0196 0.544584 32.8345 0.460317 32.6308C0.376051 32.4271 0.332789 32.2087 0.333009 31.9883L0.338009 10.3449C0.338009 9.41825 1.08634 8.66659 2.01634 8.66659H8.66634ZM11.9997 8.66659H23.6547C24.5813 8.66659 25.333 9.41492 25.333 10.3449V21.9999H30.333V3.66659H11.9997V8.66659ZM21.9997 11.9999H3.67134L3.66634 30.3333H21.9997V11.9999ZM11.1713 26.9999L5.27801 21.1066L7.63468 18.7499L11.1713 22.2866L18.2413 15.2149L20.598 17.5716L11.1713 26.9999Z" fill="#F9FAFB"/>
</svg>
