<svg width="34" height="34" viewBox="0 0 34 34" fill="none" xmlns="http://www.w3.org/2000/svg">
<path d="M6.10467 4.38827C9.12894 1.7677 12.998 0.327686 16.9997 0.333268C26.2047 0.333268 33.6663 7.79493 33.6663 16.9999C33.6663 20.5599 32.5497 23.8599 30.6497 26.5666L25.333 16.9999H30.333C30.3332 14.386 29.5651 11.8296 28.1241 9.64869C26.6831 7.46778 24.6329 5.75853 22.2283 4.73347C19.8237 3.70842 17.1709 3.41277 14.5996 3.8833C12.0283 4.35382 9.6521 5.56977 7.76634 7.37993L6.10467 4.38827ZM27.8947 29.6116C24.8704 32.2322 21.0014 33.6722 16.9997 33.6666C7.79468 33.6666 0.333008 26.2049 0.333008 16.9999C0.333008 13.4399 1.44967 10.1399 3.34967 7.43327L8.66634 16.9999H3.66634C3.66613 19.6139 4.43426 22.1703 5.87524 24.3512C7.31621 26.5321 9.36645 28.2413 11.771 29.2664C14.1756 30.2915 16.8285 30.5871 19.3997 30.1166C21.971 29.646 24.3473 28.4301 26.233 26.6199L27.8947 29.6116Z" fill="#F9FAFB"/>
</svg>
