<svg width="33" height="20" viewBox="0 0 33 20" fill="none" xmlns="http://www.w3.org/2000/svg">
<path fill-rule="evenodd" clip-rule="evenodd" d="M16.5003 0C12.0999 0 9.35042 2.18694 8.24984 6.56081C9.90007 4.37388 11.8251 3.55394 14.025 4.10035C15.2801 4.41203 16.1776 5.31732 17.1702 6.31962C18.7881 7.95174 20.6608 9.84057 24.7502 9.84057C29.1499 9.84057 31.9001 7.65364 33 3.28041C31.3504 5.46734 29.4254 6.28728 27.2255 5.74023C25.9697 5.42855 25.0722 4.52325 24.0796 3.5216C22.4617 1.88819 20.5897 0 16.5003 0ZM8.24984 9.84057C3.8501 9.84057 1.09994 12.0275 0 16.4014C1.65023 14.2145 3.57527 13.3945 5.7745 13.9409C7.03027 14.2526 7.92781 15.1579 8.9204 16.1602C10.5383 17.7923 12.4103 19.6811 16.5003 19.6811C20.9001 19.6811 23.6502 17.4949 24.7502 13.121C23.0999 15.3079 21.1749 16.1279 18.975 15.5814C17.7199 15.2691 16.8223 14.3638 15.8298 13.3622C14.2119 11.7301 12.3392 9.84057 8.24984 9.84057Z" fill="white"/>
</svg>
