<svg width="38" height="38" viewBox="0 0 38 38" fill="none" xmlns="http://www.w3.org/2000/svg">
<path d="M32.2303 12.3333H34.0003C34.8844 12.3333 35.7322 12.6845 36.3573 13.3096C36.9825 13.9348 37.3337 14.7826 37.3337 15.6667V22.3333C37.3337 23.2174 36.9825 24.0652 36.3573 24.6903C35.7322 25.3155 34.8844 25.6667 34.0003 25.6667H32.2303C31.824 28.8888 30.2558 31.852 27.8199 34C25.384 36.148 22.248 37.3333 19.0003 37.3333V34C21.6525 34 24.196 32.9464 26.0714 31.0711C27.9468 29.1957 29.0003 26.6522 29.0003 24V14C29.0003 11.3478 27.9468 8.80429 26.0714 6.92893C24.196 5.05356 21.6525 4 19.0003 4C16.3482 4 13.8046 5.05356 11.9293 6.92893C10.0539 8.80429 9.00032 11.3478 9.00032 14V25.6667H4.00033C3.11627 25.6667 2.26842 25.3155 1.6433 24.6903C1.01818 24.0652 0.666992 23.2174 0.666992 22.3333V15.6667C0.666992 14.7826 1.01818 13.9348 1.6433 13.3096C2.26842 12.6845 3.11627 12.3333 4.00033 12.3333H5.77032C6.17704 9.11149 7.74546 6.14878 10.1813 4.00112C12.6171 1.85346 15.7529 0.668457 19.0003 0.668457C22.2477 0.668457 25.3835 1.85346 27.8194 4.00112C30.2552 6.14878 31.8236 9.11149 32.2303 12.3333V12.3333ZM4.00033 15.6667V22.3333H5.66699V15.6667H4.00033ZM32.3337 15.6667V22.3333H34.0003V15.6667H32.3337ZM11.9337 25.3083L13.7003 22.4817C15.2888 23.4767 17.1259 24.003 19.0003 24C20.8747 24.003 22.7119 23.4767 24.3003 22.4817L26.067 25.3083C23.9491 26.6352 21.4996 27.3372 19.0003 27.3333C16.5011 27.3372 14.0516 26.6352 11.9337 25.3083Z" fill="#F9FAFB"/>
</svg>
