<svg width="30" height="30" viewBox="0 0 30 30" fill="none" xmlns="http://www.w3.org/2000/svg">
<path d="M30 28.3333C30 28.7754 29.8244 29.1993 29.5118 29.5118C29.1993 29.8244 28.7754 30 28.3333 30H1.66667C1.22464 30 0.800716 29.8244 0.488155 29.5118C0.175595 29.1993 0 28.7754 0 28.3333V1.66667C0 1.22464 0.175595 0.800716 0.488155 0.488155C0.800716 0.175595 1.22464 0 1.66667 0H28.3333C28.7754 0 29.1993 0.175595 29.5118 0.488155C29.8244 0.800716 30 1.22464 30 1.66667V28.3333ZM13.3333 3.33333H3.33333V26.6667H13.3333V3.33333ZM26.6667 16.6667H16.6667V26.6667H26.6667V16.6667ZM26.6667 3.33333H16.6667V13.3333H26.6667V3.33333Z" fill="#F9FAFB"/>
</svg>
