<svg width="86" height="57" viewBox="0 0 86 57" fill="none" xmlns="http://www.w3.org/2000/svg">
<path d="M42.4697 4.47769H47.7907V0H42.4697V4.47769Z" fill="#E2E2E2"/>
<path d="M47.791 4.47769H53.112V0H47.791V4.47769Z" fill="#FF3565"/>
<path d="M42.4707 8.95523H47.7917V4.47754H42.4707V8.95523Z" fill="#FF3565"/>
<path d="M47.791 8.95523H53.112V4.47754H47.791V8.95523Z" fill="#E2E2E2"/>
<path d="M75.0952 23.6236L85.9997 8.95538H73.2637L65.587 20.8163V0H55.0225V39.0015H65.587V32.6277L67.6411 29.8797L72.513 39.0015H85.4846L75.0952 23.6236" fill="white"/>
<path d="M42.5478 28.1841C42.5421 28.1898 42.5356 28.1963 42.5307 28.2028C42.4859 30.5383 40.5794 32.4206 38.2237 32.4206C35.8403 32.4206 33.9085 30.496 33.9085 28.1216V0H23.4141V29.0538C23.4141 36.0578 29.8909 38.9967 34.7815 38.9967C39.7708 38.9967 41.1133 37.8346 42.5478 36.5654V39.0015H53.1124V10.759H42.5478V28.1841" fill="#FF3565"/>
<path d="M42.4704 28.7054C42.1827 30.7997 40.4057 32.4206 38.2237 32.4206C35.8403 32.4206 33.9085 30.496 33.9085 28.1216V0H23.4141V29.0538C23.4141 36.0578 29.8909 38.9967 34.7815 38.9967C39.6811 38.9967 41.0644 37.8752 42.4704 36.6328V28.7054" fill="white"/>
<path d="M42.5479 39.0016H53.1124V37.885H42.5479V39.0016Z" fill="#FF3565"/>
<path d="M42.4707 39.0014H53.1127V10.7588H42.4707V39.0014Z" fill="#FF3565"/>
<path d="M0 0V9.73333H10.5059V39.0015H21.6851V9.74714H23.4139V10.2912H33.9084V0H0" fill="white"/>
<path fill-rule="evenodd" clip-rule="evenodd" d="M16.6109 48.9054C16.6109 49.4511 16.1675 49.8928 15.6197 49.8928C15.085 49.8928 14.6416 49.4511 14.6416 48.9054C14.6416 48.3597 15.085 47.9309 15.6197 47.9309C16.1675 47.9309 16.6109 48.3597 16.6109 48.9054ZM4.73426 49.8019V56.844H2.8693V49.8019H0.326172V48.1777H7.26435V49.8019H4.73426ZM11.4744 56.0385C10.9788 56.6622 10.3006 57 9.53116 57C7.95311 57 6.74023 55.8047 6.74023 53.6998C6.74023 51.6599 7.92703 50.4126 9.53116 50.4126C10.2745 50.4126 10.9657 50.7244 11.4744 51.3741V50.5685H13.1437V56.8441H11.4744V56.0385ZM10.0533 55.5318C9.1013 55.5318 8.44922 54.7912 8.44922 53.6998C8.44922 52.6214 9.1013 51.8808 10.0533 51.8808C10.6011 51.8808 11.201 52.1926 11.4749 52.6084V54.8172C11.201 55.2329 10.6011 55.5318 10.0533 55.5318ZM16.4551 56.8439V50.5684H14.7988V56.8439H16.4551ZM21.2655 56.5972C21.0177 56.818 20.5612 56.9999 19.883 56.9999C18.7223 56.9999 18.1094 56.4023 18.1094 55.2719V48.1777H19.7657V54.8301C19.7657 55.2329 19.9743 55.5317 20.3395 55.5317C20.5873 55.5317 20.822 55.4408 20.9133 55.3368L21.2655 56.5972ZM24.8754 56.844L26.2056 52.5693L27.5359 56.844H29.3095L31.2267 50.5684H29.4921L28.3184 54.7911L26.936 50.5684H25.4622L24.0798 54.7911L22.9061 50.5684H21.1846L23.1017 56.844H24.8754ZM33.8716 48.9054C33.8716 49.4511 33.4282 49.8928 32.8805 49.8928C32.3458 49.8928 31.9023 49.4511 31.9023 48.9054C31.9023 48.3597 32.3458 47.9309 32.8805 47.9309C33.4282 47.9309 33.8716 48.3597 33.8716 48.9054ZM33.7149 56.8439V50.5684H32.0586V56.8439H33.7149ZM37.0254 52.6084V56.8441H35.3691V50.5685H37.0254V51.3741C37.4297 50.9063 38.2122 50.4126 39.2295 50.4126C40.6249 50.4126 41.2901 51.1922 41.2901 52.4135V56.8441H39.6207V53.0502C39.6207 52.1796 39.1643 51.8808 38.46 51.8808C37.8079 51.8808 37.3124 52.2446 37.0254 52.6084ZM45.3183 57C46.0877 57 46.7659 56.6621 47.2615 56.0385V56.844H48.9308V48.1777H47.2615V51.374C46.7659 50.7244 46.0616 50.4125 45.3183 50.4125C43.7141 50.4125 42.5273 51.6599 42.5273 53.6997C42.5273 55.8046 43.7402 57 45.3183 57ZM44.2363 53.6999C44.2363 54.7913 44.8884 55.5319 45.8405 55.5319C46.3882 55.5319 46.9881 55.233 47.262 54.8173V52.5955C46.9881 52.1797 46.3882 51.8809 45.8405 51.8809C44.8884 51.8809 44.2363 52.6215 44.2363 53.6999ZM57.9129 57C60.5603 57 61.8384 55.5188 61.8384 53.3749V48.1777H59.9474V53.323C59.9474 54.5313 59.2561 55.3628 57.9129 55.3628C56.5696 55.3628 55.8653 54.5313 55.8653 53.323V48.1777H53.9873V53.3749C53.9873 55.5188 55.2654 57 57.9129 57ZM65.4222 48.1777V56.844H63.5703V48.1777H65.4222ZM72.1348 55.2329L72.8912 54.4274L74.5606 56.844H76.6342L74.065 53.4139L76.5559 50.5684H74.5214L72.1348 53.3619V48.1777H70.4785V56.844H72.1348V55.2329ZM79.2925 48.9054C79.2925 49.4511 78.8491 49.8928 78.3013 49.8928C77.7666 49.8928 77.3232 49.4511 77.3232 48.9054C77.3232 48.3597 77.7666 47.9309 78.3013 47.9309C78.8491 47.9309 79.2925 48.3597 79.2925 48.9054ZM79.1368 56.8439V50.5684H77.4805V56.8439H79.1368ZM84.2854 56.5971C84.0376 56.8179 83.5942 56.9998 82.9029 56.9998C81.7422 56.9998 81.1293 56.4022 81.1293 55.2718V52.0106H80.0859V50.5683H81.1293V48.8533H82.7856V50.5683H84.0637V52.0106H82.7856V54.83C82.7856 55.2328 82.9942 55.5316 83.3594 55.5316C83.6072 55.5316 83.8419 55.4407 83.9332 55.3367L84.2854 56.5971Z" fill="white"/>
</svg>
