<svg width="14" height="14" viewBox="0 0 14 14" fill="none" xmlns="http://www.w3.org/2000/svg">
<path d="M6.99953 0.999962C7.08753 0.999962 7.17486 0.999962 7.26153 0.999962C6.40509 1.79577 5.85459 2.86653 5.70572 4.02611C5.55686 5.18569 5.81903 6.36078 6.44669 7.34712C7.07434 8.33345 8.02777 9.06866 9.14126 9.42494C10.2548 9.78123 11.4579 9.73606 12.5415 9.2973C12.1247 10.3003 11.4434 11.1713 10.5703 11.8175C9.69725 12.4636 8.66516 12.8607 7.58413 12.9662C6.50311 13.0718 5.4137 12.8819 4.43212 12.4169C3.45054 11.9519 2.6136 11.2291 2.01059 10.3257C1.40757 9.4223 1.0611 8.37215 1.00812 7.28728C0.955142 6.2024 1.19765 5.12349 1.70978 4.16564C2.2219 3.20778 2.98444 2.40691 3.91604 1.84845C4.84764 1.28999 5.91336 0.994891 6.99953 0.994629V0.999962Z" stroke="#FAFAFA" stroke-width="1.25" stroke-linecap="round" stroke-linejoin="round"/>
</svg>
