<svg width="28" height="24" viewBox="0 0 28 24" fill="none" xmlns="http://www.w3.org/2000/svg">
<path d="M27.5494 3.54124C26.5315 3.99149 25.452 4.2872 24.3467 4.41857C25.5117 3.72181 26.3837 2.62525 26.8001 1.33324C25.7067 1.9839 24.5081 2.4399 23.2587 2.68657C22.4195 1.78867 21.3072 1.19319 20.0947 0.992682C18.8821 0.792177 17.6373 0.99789 16.5538 1.57784C15.4702 2.15779 14.6086 3.07948 14.1029 4.19963C13.5972 5.31977 13.4757 6.57561 13.7574 7.7719C11.5402 7.66077 9.37118 7.0846 7.39112 6.08079C5.41106 5.07698 3.66424 3.66797 2.26407 1.94524C1.76846 2.7965 1.50801 3.7642 1.5094 4.74924C1.5094 6.68257 2.4934 8.39057 3.9894 9.39057C3.10408 9.3627 2.23825 9.12361 1.46407 8.69324V8.76257C1.46434 10.0502 1.9099 11.2981 2.7252 12.2946C3.54051 13.2912 4.67538 13.9752 5.9374 14.2306C5.11556 14.4533 4.25381 14.4861 3.4174 14.3266C3.77323 15.4349 4.46675 16.4042 5.40086 17.0987C6.33497 17.7933 7.46291 18.1783 8.62674 18.1999C7.47004 19.1083 6.14564 19.7799 4.72924 20.1761C3.31285 20.5724 1.83224 20.6856 0.37207 20.5092C2.921 22.1485 5.8882 23.0187 8.91874 23.0159C19.1761 23.0159 24.7854 14.5186 24.7854 7.14924C24.7854 6.90924 24.7787 6.66657 24.7681 6.42924C25.8599 5.64013 26.8022 4.66259 27.5507 3.54257L27.5494 3.54124Z" fill="#F9FAFB"/>
</svg>
